name C:\Users\u0101727\Documents\MyRepositories\upper-imu-dc\Results\main_tracking\Case_31\FLX01_orientations_groundFrame.mot
datacolumns 13
datarows 21
range 0.51000000 0.71000000
endheader 
time	radius_imu_[0][0]	radius_imu_[0][1]	radius_imu_[0][2]	radius_imu_[1][0]	radius_imu_[1][1]	radius_imu_[1][2]	radius_imu_[2][0]	radius_imu_[2][1]	radius_imu_[2][2]	radius_imu_x	radius_imu_y	radius_imu_z	
          0.51000000	          0.67929330	         -0.02890856	          0.73329729	         -0.13696257	          0.97667346	          0.16537901	         -0.72097286	         -0.21277513	          0.65948834	         -0.24570197	          0.82315896	          0.04253115	
          0.52000000	          0.68190928	         -0.03128363	          0.73076745	         -0.13564724	          0.97634512	          0.16837468	         -0.71874860	         -0.21394285	          0.66153526	         -0.24922927	          0.81944553	          0.04584439	
          0.53000000	          0.68631804	         -0.03308241	          0.72654877	         -0.13457496	          0.97593868	          0.17156127	         -0.71474270	         -0.21552087	          0.66535225	         -0.25235341	          0.81328573	          0.04816546	
          0.54000000	          0.69017555	         -0.03523117	          0.72278383	         -0.13343862	          0.97548987	          0.17496756	         -0.71123262	         -0.21720561	          0.66855806	         -0.25596803	          0.80782215	          0.05100241	
          0.55000000	          0.69333621	         -0.03780062	          0.71962214	         -0.13214493	          0.97501961	          0.17853426	         -0.70839440	         -0.21887868	          0.67102124	         -0.26003919	          0.80325798	          0.05446597	
          0.56000000	          0.69594459	         -0.04065781	          0.71694356	         -0.13073072	          0.97453806	          0.18216765	         -0.70609532	         -0.22050514	          0.67290926	         -0.26437954	          0.79940807	          0.05835472	
          0.57000000	          0.69780991	         -0.04372584	          0.71494712	         -0.12930409	          0.97404691	          0.18577694	         -0.70451528	         -0.22208258	          0.67404565	         -0.26893768	          0.79654847	          0.06257971	
          0.58000000	          0.69855729	         -0.04697707	          0.71401041	         -0.12800990	          0.97354099	          0.18929184	         -0.70401078	         -0.22363160	          0.67406062	         -0.27377187	          0.79520967	          0.06714760	
          0.59000000	          0.69782312	         -0.05040626	          0.71449430	         -0.12699401	          0.97301022	          0.19267496	         -0.70492228	         -0.22518953	          0.67258773	         -0.27899648	          0.79590104	          0.07210833	
          0.60000000	          0.69537360	         -0.05402435	          0.71661491	         -0.12636637	          0.97244148	          0.19593140	         -0.70745113	         -0.22680155	          0.66938327	         -0.28475017	          0.79893674	          0.07753537	
          0.61000000	          0.69116216	         -0.05786159	          0.72037969	         -0.12617225	          0.97182035	          0.19911245	         -0.71160061	         -0.22851092	          0.66438493	         -0.29117641	          0.80434960	          0.08352163	
          0.62000000	          0.68535520	         -0.06196310	          0.72556793	         -0.12638107	          0.97113239	          0.20231090	         -0.71715833	         -0.23035288	          0.65773967	         -0.29840096	          0.81185934	          0.09016506	
          0.63000000	          0.67831742	         -0.06637689	          0.73176471	         -0.12689734	          0.97036370	          0.20564862	         -0.72372823	         -0.23235403	          0.64979155	         -0.30651027	          0.82090759	          0.09754465	
          0.64000000	          0.67053985	         -0.07114449	          0.73845431	         -0.12758926	          0.96950069	          0.20925914	         -0.73081960	         -0.23453543	          0.64101157	         -0.31554409	          0.83077520	          0.10570485	
          0.65000000	          0.66253392	         -0.07629820	          0.74513582	         -0.12832237	          0.96852948	          0.21326982	         -0.73795811	         -0.23691609	          0.63189286	         -0.32550435	          0.84073848	          0.11465612	
          0.66000000	          0.65474473	         -0.08186231	          0.75140395	         -0.12898239	          0.96743566	          0.21778840	         -0.74476364	         -0.23951368	          0.62286461	         -0.33636840	          0.85018722	          0.12438390	
          0.67000000	          0.64752362	         -0.08785301	          0.75696434	         -0.12947911	          0.96620508	          0.22289664	         -0.75096493	         -0.24234191	          0.61426548	         -0.34809128	          0.85865498	          0.13485196	
          0.68000000	          0.64115207	         -0.09427697	          0.76160087	         -0.12973469	          0.96482528	          0.22865056	         -0.75636825	         -0.24540584	          0.60636873	         -0.36059449	          0.86577984	          0.14599683	
          0.69000000	          0.63588249	         -0.10112908	          0.76513160	         -0.12966788	          0.96328706	          0.23508357	         -0.76081515	         -0.24869852	          0.59942418	         -0.37374890	          0.87124570	          0.15771652	
          0.70000000	          0.63195857	         -0.10839178	          0.76738490	         -0.12918545	          0.96158503	          0.24220931	         -0.76415933	         -0.25220122	          0.59367926	         -0.38736677	          0.87475261	          0.16986440	
          0.71000000	          0.62959554	         -0.11603832	          0.76820867	         -0.12818644	          0.95971710	          0.25002266	         -0.76627521	         -0.25588709	          0.58935907	         -0.40121663	          0.87603836	          0.18226078	
